name C:\Users\antoi\Documents\MyRepositories\upper-imu-dc\Results\main_tracking\Case_96\kinematics.mot
datacolumns 43
datarows 4
range 4.62000000 4.68000000
endheader 
time	clav_prot	clav_elev	scapula_abduction	scapula_elevation	scapula_upward_rot	scapula_winging	plane_elv	shoulder_elv	axial_rot	TrapeziusScapula_M/activation	TrapeziusScapula_S/activation	TrapeziusScapula_I/activation	TrapeziusClavicle_S/activation	SerratusAnterior_I/activation	SerratusAnterior_M/activation	SerratusAnterior_S/activation	Rhomboideus_S/activation	Rhomboideus_I/activation	LevatorScapulae/activation	Coracobrachialis/activation	DeltoideusClavicle_A/activation	DeltoideusScapula_P/activation	DeltoideusScapula_M/activation	LatissimusDorsi_S/activation	LatissimusDorsi_M/activation	LatissimusDorsi_I/activation	PectoralisMajorClavicle_S/activation	PectoralisMajorThorax_I/activation	PectoralisMajorThorax_M/activation	TeresMajor/activation	Infraspinatus_I/activation	Infraspinatus_S/activation	PectoralisMinor/activation	TeresMinor/activation	Subscapularis_S/activation	Subscapularis_M/activation	Subscapularis_I/activation	Supraspinatus_P/activation	Supraspinatus_A/activation	TRIlong/activation	BIC_long/activation	BIC_brevis/activation	
          4.62000000	        -37.40577672	          1.86281072	        -21.68690839	         -5.70314936	         38.27850074	         -5.34945251	          6.36072529	         66.04693912	          4.83594419	          0.06520105	          0.12670433	          0.05591987	          0.05828224	          0.10604721	          0.09877480	          0.03766893	          0.04006928	          0.03078414	          0.03659955	          0.03278247	          0.06703934	          0.05068653	          0.18021498	          0.03010498	          0.01964050	          0.02063305	          0.04042497	          0.01573952	          0.02642311	          0.02950600	          0.05859312	          0.06497867	          0.02567413	          0.04546928	          0.03928380	          0.03799003	          0.03597788	          0.05089938	          0.04840817	          0.01996615	          0.05372805	          0.03834646	
          4.64000000	        -37.46964876	          1.89120987	        -21.57121073	         -5.72896550	         38.57698184	         -5.43869505	          6.57224139	         66.73240531	          4.75222373	          0.06548274	          0.12748545	          0.05605448	          0.05838284	          0.10665620	          0.09973946	          0.03752949	          0.03995090	          0.03063701	          0.03644916	          0.03289237	          0.06790557	          0.05039016	          0.18129913	          0.02994646	          0.01946545	          0.02041516	          0.04045804	          0.01564904	          0.02638670	          0.02942123	          0.05864098	          0.06508022	          0.02553067	          0.04540459	          0.03930452	          0.03792393	          0.03587548	          0.05099437	          0.04849082	          0.01977606	          0.05380013	          0.03846700	
          4.66000000	        -37.53647432	          1.92300953	        -21.45945116	         -5.75235896	         38.87735660	         -5.53036125	          6.79145031	         67.40127441	          4.67896579	          0.06581037	          0.12839650	          0.05620432	          0.05848939	          0.10724462	          0.10068390	          0.03737391	          0.03983864	          0.03050113	          0.03630141	          0.03297505	          0.06873439	          0.05016446	          0.18245517	          0.02978602	          0.01928700	          0.02019022	          0.04046851	          0.01553983	          0.02632305	          0.02935237	          0.05866343	          0.06518221	          0.02537189	          0.04533177	          0.03932540	          0.03786532	          0.03579059	          0.05107434	          0.04853678	          0.01961228	          0.05383923	          0.03856572	
          4.68000000	        -37.60702557	          1.95806842	        -21.35239142	         -5.77355364	         39.18016013	         -5.62482113	          7.01836592	         68.05257515	          4.61606860	          0.06617118	          0.12937783	          0.05637985	          0.05859712	          0.10785336	          0.10163014	          0.03720200	          0.03971938	          0.03035895	          0.03614054	          0.03305984	          0.06955981	          0.04993468	          0.18355824	          0.02962632	          0.01910973	          0.01996550	          0.04047396	          0.01542416	          0.02625075	          0.02928997	          0.05868432	          0.06528501	          0.02520522	          0.04525835	          0.03934810	          0.03781067	          0.03571030	          0.05115139	          0.04857786	          0.01946150	          0.05387171	          0.03866386	
